<svg width="194" height="194" viewBox="0 0 194 194" fill="none" xmlns="http://www.w3.org/2000/svg">
<g clip-path="url(#clip0_65_2778)">
<path d="M96.9714 193.943C150.527 193.943 193.943 150.527 193.943 96.9714C193.943 43.4156 150.527 0 96.9714 0C43.4156 0 0 43.4156 0 96.9714C0 150.527 43.4156 193.943 96.9714 193.943Z" fill="#F1515D"/>
<path d="M36.093 71.7292L32.7807 82.1802L17.761 77.4401L21.0162 67.1033L23.5861 67.9029L21.3589 74.9844L24.6712 76.0124L26.3845 70.5299L28.726 71.2723L27.0127 76.7548L31.2959 78.1254L33.5802 70.9296L36.093 71.7292Z" fill="white"/>
<path d="M42.0324 60.5929L37.1781 69.3877L23.3577 61.7922L25.0138 58.8225L36.4928 65.1045L39.6909 59.2794L42.0324 60.5929Z" fill="white"/>
<path d="M49.7421 51.0556L43.3459 58.8225L31.1816 48.7713L33.3518 46.1442L43.4601 54.4822L47.6862 49.3424L49.7421 51.0556Z" fill="white"/>
<path d="M59.1081 43.0604L51.3984 49.5137L41.29 37.4065L43.9171 35.2364L52.3121 45.2876L57.3948 41.0044L59.1081 43.0604Z" fill="white"/>
<path d="M65.847 39.5196C63.8482 40.6047 62.0778 40.8902 60.4787 40.3762C58.9368 39.8622 57.6232 38.6629 56.5953 36.7212L52.1979 28.6117L55.2247 26.9556L59.565 35.008C60.1932 36.1501 60.8785 36.8926 61.678 37.2923C62.4775 37.6921 63.3913 37.5779 64.5335 37.0068C65.6756 36.3786 66.2467 35.6362 66.361 34.7795C66.4181 33.9229 66.1896 32.8949 65.5614 31.7527L61.2211 23.7003L64.1908 22.1013L68.5882 30.2108C69.6162 32.1525 69.9588 33.8658 69.5591 35.4648C69.1022 37.0639 67.8458 38.3774 65.847 39.5196Z" fill="white"/>
<path d="M80.9809 33.6373C78.7536 34.2084 76.9832 34.0371 75.6126 33.1805C74.242 32.3238 73.2711 30.839 72.7571 28.6688L70.4728 19.7027L73.8422 18.846L76.0695 27.698C76.4121 28.9544 76.869 29.8681 77.5543 30.4392C78.2396 31.0103 79.1534 31.1816 80.3527 30.839C81.6091 30.5534 82.3515 29.9823 82.637 29.1257C82.9226 28.3262 82.9226 27.2411 82.5799 25.9847L80.3527 17.1328L83.6079 16.3332L85.8923 25.2994C86.4062 27.4124 86.292 29.1828 85.4925 30.6105C84.693 32.0383 83.2081 33.0662 80.9809 33.6373Z" fill="white"/>
<path d="M97.0857 31.6385C94.8013 31.6385 93.088 31.0674 91.9458 29.8681C90.8037 28.6688 90.2897 27.0127 90.2897 24.7854V15.5337H93.7733V24.6712C93.7733 25.9847 94.0018 26.9555 94.5158 27.698C95.0297 28.4404 95.8864 28.783 97.1428 28.783C98.3992 28.783 99.3129 28.4404 99.7698 27.698C100.284 26.9555 100.512 25.9847 100.512 24.6712V15.5337H103.882V24.7854C103.882 26.9555 103.311 28.6688 102.225 29.8681C101.083 31.0103 99.37 31.6385 97.0857 31.6385Z" fill="white"/>
<path d="M114.904 33.7515L111.706 32.7236L116.56 17.7039L122.842 19.7598C124.784 20.388 126.04 21.2446 126.668 22.3297C127.297 23.4148 127.411 24.6712 126.954 26.0418C126.497 27.4124 125.697 28.3833 124.555 28.8973C123.413 29.4112 121.871 29.4112 119.929 28.783L116.846 27.7551L114.904 33.7515ZM118.959 21.1875L117.588 25.3565L120.215 26.2131C121.072 26.4987 121.814 26.5558 122.442 26.4416C123.07 26.3273 123.47 25.8134 123.699 25.0709C123.927 24.3285 123.87 23.7003 123.47 23.1863C123.07 22.7295 122.442 22.3297 121.586 22.0442L118.959 21.1875Z" fill="white"/>
<path d="M128.496 39.2911L125.583 37.5779L133.636 24.043L139.346 27.4124C141.117 28.4404 142.145 29.5826 142.487 30.7819C142.83 31.9812 142.659 33.2376 141.916 34.4369C141.174 35.6933 140.203 36.4357 138.947 36.6641C137.69 36.9497 136.205 36.5499 134.435 35.4648L131.637 33.8087L128.496 39.2911ZM135.292 27.9835L133.064 31.7527L135.406 33.1805C136.205 33.6373 136.891 33.8658 137.519 33.8658C138.147 33.8658 138.661 33.5231 139.061 32.7807C139.461 32.0954 139.518 31.4672 139.289 30.8961C139.004 30.325 138.49 29.811 137.69 29.3541L135.292 27.9835Z" fill="white"/>
<path d="M146.028 52.9402L138.033 45.4589L148.769 33.9229L156.708 41.29L154.88 43.2317L149.455 38.149L147.056 40.7189L151.225 44.6594L149.569 46.4869L145.4 42.5464L142.316 45.8016L147.856 50.9414L146.028 52.9402Z" fill="white"/>
<path d="M154.024 63.8481L147.684 54.882L160.534 45.8016L166.759 54.6535L164.589 56.1955L160.306 50.1419L157.45 52.1407L160.762 56.8237L158.764 58.2514L155.451 53.5684L151.796 56.1384L156.137 62.3062L154.024 63.8481Z" fill="white"/>
<path d="M159.563 76.1837L155.223 66.1325L169.672 59.8505L173.955 69.7875L171.499 70.8725L168.529 64.0194L165.331 65.3901L167.616 70.6441L165.331 71.615L163.047 66.3609L158.935 68.1313L161.962 75.0986L159.563 76.1837Z" fill="white"/>
<path d="M160.534 80.7524C160.363 80.1813 160.42 79.7245 160.705 79.3247C160.934 78.9249 161.334 78.6965 161.848 78.5252C162.361 78.411 162.875 78.411 163.275 78.6394C163.675 78.8678 163.961 79.2676 164.075 79.8387C164.246 80.4098 164.189 80.9238 163.903 81.2664C163.675 81.6662 163.275 81.8946 162.761 82.0659C162.247 82.1802 161.79 82.1802 161.391 81.9517C160.934 81.7233 160.648 81.3806 160.534 80.7524ZM166.245 80.6953L165.56 78.0683L174.868 75.2699L175.44 75.0986L176.296 78.5823L175.725 78.7536L166.245 80.6953Z" fill="white"/>
<path d="M19.1887 118.102C18.7318 116.503 18.6747 115.018 19.0745 113.762C19.4171 112.505 20.1024 111.477 21.1304 110.621C22.1584 109.764 23.4719 109.136 25.0709 108.679C26.67 108.222 28.1548 108.108 29.4683 108.336C30.7819 108.565 31.924 109.079 32.8378 109.992C33.7515 110.906 34.4368 112.162 34.8937 113.762C35.3506 115.418 35.4077 116.845 35.0079 118.102C34.6653 119.358 33.98 120.386 32.952 121.243C31.924 122.099 30.6105 122.728 29.0115 123.185C27.4124 123.641 25.9276 123.756 24.6141 123.527C23.3005 123.299 22.1584 122.785 21.2446 121.871C20.3309 121.014 19.6456 119.758 19.1887 118.102ZM21.6444 117.417C21.987 118.73 22.7295 119.587 23.8716 119.929C24.9567 120.272 26.3844 120.215 28.1548 119.758C29.9252 119.301 31.1245 118.616 31.924 117.759C32.6665 116.903 32.8949 115.76 32.5522 114.447C32.2096 113.133 31.4672 112.277 30.3821 111.934C29.297 111.591 27.8693 111.649 26.0989 112.105C24.3856 112.562 23.1292 113.248 22.3297 114.104C21.4731 115.018 21.2446 116.103 21.6444 117.417Z" fill="white"/>
<path d="M27.0127 136.491L23.7574 130.552L37.5779 122.956L40.6047 128.382C41.5755 130.095 41.9182 131.523 41.7468 132.665C41.5184 133.807 40.8902 134.606 39.8622 135.235C39.1769 135.634 38.5487 135.749 37.9205 135.634C37.2923 135.52 36.7212 135.178 36.1501 134.606L35.7504 134.835C36.0359 135.863 36.093 136.719 35.8075 137.462C35.5791 138.204 34.9509 138.832 33.98 139.404C32.7807 140.089 31.5814 140.203 30.3821 139.803C29.1257 139.461 28.0406 138.376 27.0127 136.491ZM31.4672 130.038L27.4124 132.265L28.8973 134.949C29.4113 135.863 29.9252 136.434 30.4963 136.605C31.0674 136.834 31.6956 136.719 32.3238 136.377C33.0091 135.977 33.4089 135.463 33.466 134.835C33.5231 134.207 33.3518 133.464 32.8949 132.665L31.4672 130.038ZM37.0068 126.954L33.5802 128.838L34.8937 131.237C35.2935 131.922 35.6933 132.379 36.2073 132.608C36.7212 132.836 37.2352 132.836 37.8634 132.493C39.0056 131.865 39.1769 130.837 38.3774 129.352L37.0068 126.954Z" fill="white"/>
<path d="M34.8937 147.97L32.7806 145.286L45.1733 135.52L47.2864 138.204L34.8937 147.97Z" fill="white"/>
<path d="M45.3447 158.649L42.889 156.765L52.3692 144.144L57.1092 147.684L53.1116 161.162L53.5114 161.448L61.3924 150.997L63.8481 152.881L54.368 165.502L49.6279 161.905L53.5685 148.484L53.1687 148.198L45.3447 158.649Z" fill="white"/>
<path d="M67.8457 171.899L62.3062 169.957L65.3329 154.423L65.3901 154.309L68.5311 155.394L65.9611 168.358L66.418 168.529L72.9285 156.936L78.2396 158.821L76.0124 171.956L76.4692 172.127L82.5799 160.42L85.5496 161.448L85.4925 161.562L78.1254 175.554L72.5858 173.612L74.8131 160.477L74.3562 160.306L67.8457 171.899Z" fill="white"/>
<path d="M88.1766 176.924L84.9785 176.753V176.639L90.6323 161.276L96.0006 161.562L99.884 177.438V177.553L96.4004 177.381L93.3165 164.075H92.8025L88.1766 176.924ZM95.8864 173.441L89.1475 173.041L90.0041 170.528L95.3153 170.814L95.8864 173.441Z" fill="white"/>
<path d="M108.45 176.582L105.424 177.153L102.34 161.676L108.108 160.534L115.475 172.413L115.932 172.298L113.419 159.449L116.446 158.878L119.53 174.354L113.704 175.497L106.337 163.618L105.88 163.732L108.45 176.582Z" fill="white"/>
<path d="M129.124 170.699L126.383 172.07L119.358 157.964L124.612 155.337L134.835 164.874L135.292 164.646L129.467 152.938L132.208 151.568L139.232 165.674L133.921 168.301L123.699 158.764L123.299 158.992L129.124 170.699Z" fill="white"/>
<path d="M153.053 154.766L144.658 161.79L134.549 149.683L142.83 142.716L144.543 144.772L138.833 149.569L141.06 152.253L145.457 148.541L147.056 150.426L142.659 154.138L145.514 157.564L151.339 152.71L153.053 154.766Z" fill="white"/>
<path d="M163.161 142.887L161.619 145.514L147.97 137.576L150.997 132.379L163.789 136.434L164.132 135.806L154.309 126.668L157.336 121.471L170.985 129.409L169.386 132.151L158.193 125.64L157.907 126.097L167.673 135.12L164.817 140.032L152.139 135.977L151.853 136.434L163.161 142.887Z" fill="white"/>
<path d="M168.758 118.273L167.958 120.843L158.592 118.33L158.021 118.159L159.106 114.732L159.677 114.904L168.758 118.273ZM173.669 121.186C173.498 121.757 173.212 122.099 172.755 122.328C172.356 122.556 171.899 122.556 171.385 122.385C170.871 122.214 170.471 121.928 170.243 121.528C170.014 121.129 170.014 120.672 170.185 120.101C170.357 119.53 170.642 119.13 171.042 118.958C171.442 118.787 171.899 118.73 172.47 118.901C172.984 119.073 173.326 119.358 173.555 119.758C173.84 120.158 173.84 120.615 173.669 121.186Z" fill="white"/>
<path d="M96.9715 155.965C64.5334 155.965 37.9777 129.409 37.9777 96.9714C38.0348 64.5334 64.5334 38.0347 96.9715 38.0347C129.41 38.0347 155.965 64.5905 155.965 97.0285C155.965 129.409 129.41 155.965 96.9715 155.965Z" fill="#F47D86" stroke="white" strokeWidth="2" stroke-miterlimit="10"/>
<path d="M96.9715 155.965C64.5334 155.965 37.9777 129.409 37.9777 96.9714C38.0348 64.5334 64.5334 38.0347 96.9715 38.0347C129.41 38.0347 155.965 64.5905 155.965 97.0285C155.965 129.409 129.41 155.965 96.9715 155.965Z" fill="#F1515D"/>
<mask id="mask0_65_2778" style="mask-type:luminance" maskUnits="userSpaceOnUse" x="37" y="38" width="119" height="118">
<path d="M96.9715 155.965C64.5334 155.965 37.9777 129.409 37.9777 96.9714C38.0348 64.5334 64.5334 38.0347 96.9715 38.0347C129.41 38.0347 155.965 64.5905 155.965 97.0285C155.965 129.409 129.41 155.965 96.9715 155.965Z" fill="white"/>
</mask>
<g mask="url(#mask0_65_2778)">
<path d="M74.299 93.0309C72.4715 91.5461 70.5869 89.6615 70.5298 89.3188C70.3585 88.6906 69.4447 86.5776 71.9004 84.4645C73.0426 83.4937 74.6417 83.3223 75.9552 84.0077C77.7827 84.9214 80.3526 86.4062 81.5519 87.5484" stroke="white" stroke-miterlimit="10"/>
<path d="M73.3853 93.9447C73.3282 93.9447 73.214 93.9447 73.1569 93.9447" stroke="white" stroke-miterlimit="10" strokeLinejoin="round"/>
<path d="M97.6567 77.9541L122.499 86.2349C125.64 87.2629 127.982 89.8899 128.724 93.1451L134.721 120.672C134.721 120.729 134.778 120.843 134.835 120.9L156.194 154.48L163.275 164.989" stroke="white" stroke-miterlimit="10" strokeLinejoin="round"/>
<path d="M118.73 104.91L112.962 105.538C112.848 105.538 112.734 105.538 112.619 105.481L104.967 102.454L101.083 100.912L98.2279 99.7698C98.1137 99.7127 97.9995 99.6556 97.9423 99.5985L97.3141 98.9132L90.9179 91.5461C89.3189 89.7186 87.4343 88.1766 85.3212 87.0344L83.6079 86.1207L77.9541 83.0368C77.897 83.0368 76.9833 82.6941 76.9262 82.6941C74.242 81.6091 71.9005 83.0368 71.9005 83.0368C70.587 83.4937 69.5591 84.5216 69.1022 85.8351C69.0451 86.0636 68.9309 86.292 68.9309 86.5205C68.8738 86.8631 68.8167 87.2058 68.8167 87.5484C68.8167 88.6906 69.2164 89.8328 70.0159 90.6894L73.2712 93.9447L73.3854 94.0589L76.0124 97.0857L77.897 99.2558C77.897 99.2558 77.897 99.3129 77.9541 99.3129L83.2082 104.453L89.4902 110.621L89.5473 110.678L89.6044 110.735C89.6044 110.735 95.8864 126.497 98.5706 131.18C100.684 134.835 109.022 144.087 109.022 144.087C109.878 145 110.963 145.686 112.163 146.085L113.59 146.485C113.762 146.542 113.933 146.656 113.99 146.828L122.842 183.835" stroke="white" stroke-miterlimit="10" strokeLinejoin="round"/>
<path d="M96.0006 83.2081L91.8316 90.2326C91.7174 90.4039 91.5461 90.5752 91.3176 90.5752L90.2325 90.6894" stroke="white" stroke-miterlimit="10" strokeLinejoin="round"/>
<path d="M92.2313 89.6044L94.0588 90.1183C94.4586 90.2326 94.8583 90.0041 94.9726 89.6044L96.0576 85.3212" stroke="white" stroke-miterlimit="10" strokeLinejoin="round"/>
<path d="M94.8013 89.8328C94.8013 89.8328 101.026 95.4295 103.939 94.6871C106.851 93.9447 110.049 89.433 110.049 89.433" stroke="white" stroke-miterlimit="10" strokeLinejoin="round"/>
<path d="M103.996 94.6871C103.996 94.6871 101.14 98.5134 104.967 102.454" stroke="white" stroke-miterlimit="10" strokeLinejoin="round"/>
<path d="M108.565 98.9132L117.873 92.7454" stroke="white" stroke-miterlimit="10" strokeLinejoin="round"/>
<path d="M76.0124 96.9714L73.7851 98.6847C73.6709 98.7989 73.5567 98.9132 73.5567 99.0845L72.3003 104.167C72.3003 104.281 72.2432 104.339 72.1861 104.453L67.8458 109.764C67.6173 109.992 67.6173 110.392 67.8458 110.621C69.5019 112.734 72.2432 113.704 74.8702 113.019C76.5264 112.562 77.9541 111.477 78.7536 109.992L81.4378 104.967C81.552 104.795 81.7233 104.681 81.8946 104.624H82.9449C82.9449 104.624 77.1546 119.016 77.1546 119.701C77.1546 120.329 78.411 123.813 78.6965 124.498C78.6965 124.555 78.7536 124.669 78.7536 124.727L78.9821 131.351C78.9821 131.408 78.9821 131.465 78.9821 131.465C79.0963 131.922 79.8387 134.435 83.2081 133.464C86.9202 132.379 89.0333 129.467 87.0916 120.272C87.0345 119.986 87.1487 119.701 87.3771 119.53C88.4051 118.844 90.9179 116.446 89.6615 110.506L86.3491 110.278" stroke="white" stroke-miterlimit="10" strokeLinejoin="round"/>
<path d="M85.8922 131.865C88.6335 134.035 89.0332 133.521 91.032 131.408C93.602 128.724 91.3747 123.927 91.3747 123.927C92.0029 123.641 92.574 122.671 92.9738 121.528C93.1451 121.014 93.3164 120.5 93.4877 119.986" stroke="white" stroke-miterlimit="10" strokeLinejoin="round"/>
<path d="M88.2337 93.0309C88.2337 93.0309 81.4377 94.5729 81.609 97.9994" stroke="white" stroke-miterlimit="10" strokeLinejoin="round"/>
<path d="M83.8363 100.626C83.8363 100.626 89.433 97.0857 88.8048 95.0868" stroke="white" stroke-miterlimit="10" strokeLinejoin="round"/>
<path d="M90.6323 95.5437C90.6323 95.5437 90.8607 100.055 87.6626 100.684" stroke="white" stroke-miterlimit="10" strokeLinejoin="round"/>
<path d="M81.4948 87.5484C81.8946 87.9482 82.123 88.2908 82.123 88.5764C82.0659 90.2326 79.3247 95.1439 77.6685 95.0297C76.9832 94.9726 75.6697 94.116 74.2991 93.0309" stroke="white" stroke-miterlimit="10" strokeLinejoin="round"/>
<path d="M102.397 95.144C102.397 95.144 101.198 98.6276 100.17 98.9132C99.1987 99.1987 97.3141 98.9132 97.3141 98.9132" stroke="white" stroke-miterlimit="10" strokeLinejoin="round"/>
<path d="M100.17 98.9132C100.17 98.9132 100.626 99.7127 101.712 99.7127" stroke="white" stroke-miterlimit="10" strokeLinejoin="round"/>
<path d="M102.968 97.5425L101.083 100.912" stroke="white" stroke-miterlimit="10" strokeLinejoin="round"/>
<path d="M78.6394 124.555C78.6394 124.555 78.8678 122.499 79.8958 122.842C80.9238 123.185 84.9785 128.039 78.8678 131.351" stroke="white" stroke-miterlimit="10" strokeLinejoin="round"/>
<path d="M72.2432 104.339C72.2432 104.339 73.3283 108.565 67.6744 110.164" stroke="white" stroke-miterlimit="10" strokeLinejoin="round"/>
<path d="M73.5566 99.0274C74.242 99.3129 75.2699 100.626 75.2699 100.626" stroke="white" stroke-miterlimit="10" strokeLinejoin="round"/>
<path d="M77.4401 119.701L79.8958 119.016" stroke="white" stroke-miterlimit="10" strokeLinejoin="round"/>
<path d="M91.4318 123.927L89.0903 122.899" stroke="white" stroke-miterlimit="10" strokeLinejoin="round"/>
<path d="M74.5275 98.6276C74.5275 98.6276 76.0123 98.7989 76.0694 99.884" stroke="white" stroke-miterlimit="10" strokeLinejoin="round"/>
<path d="M83.7221 86.0636C86.6347 84.1219 89.6614 82.2944 92.8024 80.5811L97.7138 77.9541L129.295 60.8784L105.195 16.3904L68.7595 36.1501C60.4786 40.5475 52.8831 45.9158 45.9729 52.1407L11.2505 83.4366L35.3506 127.925L70.073 96.6288C71.1009 95.715 72.1289 94.8013 73.1569 93.9447C73.214 93.8876 73.214 93.8876 73.2711 93.8304" stroke="white" stroke-miterlimit="10" strokeLinejoin="round"/>
</g>
<path d="M96.9715 155.965C64.5334 155.965 37.9777 129.409 37.9777 96.9714C38.0348 64.5334 64.5334 38.0347 96.9715 38.0347C129.41 38.0347 155.965 64.5905 155.965 97.0285C155.965 129.409 129.41 155.965 96.9715 155.965Z" stroke="white" stroke-miterlimit="10"/>
</g>
<defs>
<clipPath id="clip0_65_2778">
<rect width="194" height="194" fill="white"/>
</clipPath>
</defs>
</svg>
