<svg width="57" height="66" viewBox="0 0 57 66" fill="none" xmlns="http://www.w3.org/2000/svg">
<g clip-path="url(#clip0_1_4)">
<path d="M28.1688 62.1416C43.4346 62.1416 55.81 49.7662 55.81 34.5004C55.81 19.2346 43.4346 6.85922 28.1688 6.85922C12.903 6.85922 0.527649 19.2346 0.527649 34.5004C0.527649 49.7662 12.903 62.1416 28.1688 62.1416Z" stroke="#282828" strokeWidth="1.02347" stroke-miterlimit="10"/>
<path d="M10.0591 29.1219L9.75274 29.9559L5.53168 28.4071L6.11037 26.8242L10.0932 26.7901L10.1442 26.654L6.65503 25.3604L6.96139 24.5264L11.1825 26.0753L10.6038 27.6582L6.62099 27.6752L6.56992 27.7944L10.0591 29.1219Z" fill="#282828"/>
<path d="M12.7654 23.7945C12.493 24.186 12.1867 24.4583 11.8463 24.6115C11.5058 24.7647 11.1484 24.7987 10.774 24.7307C10.3995 24.6626 10.0251 24.4924 9.63359 24.22C9.24212 23.9477 8.95278 23.6414 8.76555 23.318C8.57833 22.9946 8.49322 22.6371 8.51025 22.2627C8.54429 21.8883 8.69747 21.5138 8.9698 21.1223C9.24212 20.7309 9.54849 20.4585 9.8889 20.3053C10.2293 20.1522 10.5867 20.1181 10.9612 20.1862C11.3356 20.2543 11.7101 20.4245 12.1016 20.6968C12.493 20.9691 12.7824 21.2755 12.9696 21.5989C13.1738 21.9223 13.2419 22.2797 13.2249 22.6371C13.2079 23.0116 13.0547 23.4031 12.7654 23.7945ZM12.1696 23.386C12.3909 23.0627 12.442 22.7563 12.3228 22.4329C12.2037 22.1265 11.9314 21.8202 11.5058 21.5308C11.0803 21.2415 10.7059 21.0883 10.3825 21.0713C10.0591 21.0542 9.76976 21.2245 9.54849 21.5308C9.32723 21.8542 9.27616 22.1606 9.39531 22.4669C9.51445 22.7733 9.78678 23.0797 10.2123 23.369C10.6378 23.6584 11.0122 23.8116 11.3356 23.8286C11.676 23.8456 11.9484 23.6924 12.1696 23.386Z" fill="#282828"/>
<path d="M16.7992 19.6245C16.5269 19.8458 16.2546 19.982 15.9992 20.0501C15.7439 20.1181 15.5227 20.1352 15.3014 20.1181C15.0972 20.0841 14.8929 20.016 14.7397 19.9139C14.5695 19.8118 14.4334 19.6926 14.3142 19.5565L15.0291 19.0118C15.1142 19.1139 15.2333 19.199 15.3695 19.2501C15.5057 19.3012 15.6588 19.3182 15.829 19.2841C15.9992 19.2501 16.1865 19.165 16.3567 19.0288C16.5609 18.8756 16.6801 18.7225 16.7141 18.5693C16.7481 18.4161 16.7141 18.2799 16.612 18.1438C16.5099 18.0246 16.3907 17.9565 16.2546 17.9395C16.1014 17.9225 15.9482 17.9395 15.778 18.0076L15.1482 18.2118C14.944 18.2799 14.7227 18.331 14.5185 18.365C14.2972 18.3991 14.093 18.382 13.9057 18.331C13.7015 18.2799 13.5313 18.1438 13.3611 17.9395C13.1909 17.7183 13.1228 17.497 13.1058 17.2757C13.1058 17.0374 13.1739 16.8162 13.31 16.5949C13.4462 16.3736 13.6334 16.1694 13.8887 15.9822C14.2121 15.7439 14.5015 15.6077 14.7738 15.5737C15.0461 15.5396 15.2844 15.5737 15.4886 15.6758C15.6929 15.7779 15.8801 15.8971 16.0333 16.0673L15.3184 16.6119C15.2503 16.5268 15.1652 16.4758 15.0631 16.4247C14.961 16.3736 14.8419 16.3566 14.7227 16.3907C14.6036 16.4077 14.4504 16.4758 14.3142 16.5949C14.144 16.7311 14.0419 16.8502 14.0249 16.9864C13.9908 17.1225 14.0249 17.2417 14.11 17.3438C14.1951 17.4629 14.3142 17.514 14.4504 17.531C14.5866 17.531 14.7397 17.514 14.927 17.4459L15.5737 17.2247C15.778 17.1566 15.9992 17.1055 16.2035 17.0715C16.4248 17.0374 16.629 17.0545 16.8162 17.1225C17.0205 17.1906 17.2077 17.3268 17.3609 17.548C17.6162 17.8885 17.7013 18.2289 17.5992 18.6033C17.497 18.9437 17.2417 19.3012 16.7992 19.6245Z" fill="#282828"/>
<path d="M20.5948 17.3098L19.7097 17.7182L18.1438 14.3312L16.9354 14.8929L16.612 14.195L19.931 12.6632L20.2544 13.361L19.0459 13.9227L20.5948 17.3098Z" fill="#282828"/>
<path d="M23.3691 16.3566L22.4329 16.5608L21.4798 12.1696L23.352 11.7611C23.7265 11.676 24.0499 11.659 24.3052 11.727C24.5605 11.7781 24.7647 11.8972 24.9179 12.0504C25.0711 12.2206 25.1732 12.4079 25.2243 12.6632C25.2924 12.9355 25.2583 13.1908 25.1562 13.4291C25.0541 13.6674 24.8669 13.8546 24.5945 14.0078L26.0072 15.7609V15.7949L25.02 15.9992L23.7095 14.3312L22.9606 14.5014L23.3691 16.3566ZM22.5691 12.6632L22.8074 13.8035L23.6074 13.6333C23.8456 13.5823 24.0329 13.4972 24.152 13.378C24.2711 13.2589 24.3052 13.1057 24.2541 12.8844C24.2031 12.6632 24.1009 12.527 23.9478 12.4759C23.7946 12.4249 23.5903 12.4249 23.352 12.4759L22.5691 12.6632Z" fill="#282828"/>
<path d="M28.4922 15.863C27.8455 15.846 27.3519 15.6758 27.0455 15.3184C26.7391 14.978 26.5859 14.4844 26.603 13.8716L26.671 11.2335L27.6582 11.2505L27.5901 13.8546C27.5731 14.2291 27.6412 14.5184 27.7774 14.7226C27.9135 14.9269 28.1688 15.046 28.5263 15.046C28.8837 15.0631 29.139 14.9609 29.2922 14.7567C29.4284 14.5524 29.5135 14.2631 29.5135 13.9057L29.5815 11.3015L30.5517 11.3186L30.4836 13.9567C30.4666 14.5865 30.2964 15.0631 29.973 15.3864C29.6496 15.7269 29.156 15.88 28.4922 15.863Z" fill="#282828"/>
<path d="M33.0026 16.5268C32.3729 16.3566 31.9303 16.0162 31.6921 15.5396C31.4538 15.046 31.4197 14.4503 31.624 13.7354C31.8112 13.0376 32.1346 12.527 32.5941 12.2206C33.0537 11.9143 33.5984 11.8462 34.2281 12.0164C34.6196 12.1185 34.9259 12.2887 35.1472 12.493C35.3855 12.7142 35.5387 12.9695 35.6238 13.2589C35.7089 13.5482 35.7259 13.8716 35.6578 14.195L34.7217 13.9567C34.7728 13.6503 34.7387 13.378 34.6196 13.1568C34.5004 12.9355 34.2962 12.7993 34.0409 12.7142C33.7005 12.6291 33.4111 12.6802 33.1558 12.9185C32.9175 13.1397 32.7133 13.4972 32.5941 14.0078C32.458 14.5184 32.441 14.9269 32.5431 15.2332C32.6452 15.5396 32.8665 15.7439 33.1899 15.829C33.4622 15.897 33.7175 15.88 33.9388 15.7439C34.16 15.6077 34.3132 15.4034 34.4153 15.1141L35.3515 15.3694C35.2323 15.6928 35.0621 15.9481 34.8408 16.1694C34.6196 16.3736 34.3472 16.5268 34.0409 16.5949C33.7345 16.6459 33.3771 16.6289 33.0026 16.5268Z" fill="#282828"/>
<path d="M37.2748 18.1948L36.4238 17.7353L38.1769 14.4333L37.0025 13.8035L37.3599 13.1397L40.5768 14.8588L40.2193 15.5226L39.0449 14.8928L37.2748 18.1948Z" fill="#282828"/>
<path d="M40.3385 20.4926C39.8449 20.0671 39.5896 19.6075 39.5725 19.148C39.5555 18.6884 39.7427 18.2118 40.1682 17.7523L41.9043 15.7779L42.6532 16.4247L40.9171 18.3821C40.6789 18.6544 40.5427 18.9267 40.5087 19.165C40.4746 19.4203 40.5938 19.6586 40.8661 19.8969C41.1384 20.1352 41.3937 20.2203 41.632 20.1522C41.8703 20.0841 42.1086 19.9139 42.3639 19.6416L44.0829 17.6842L44.8148 18.314L43.0787 20.2883C42.6703 20.7649 42.2277 21.0202 41.7682 21.0543C41.3086 21.1223 40.832 20.9351 40.3385 20.4926Z" fill="#282828"/>
<path d="M42.9596 23.1648L42.415 22.3818L46.0914 19.7947L47.1977 21.3606C47.419 21.684 47.5552 21.9734 47.6062 22.2287C47.6573 22.484 47.6402 22.7223 47.5381 22.9265C47.453 23.1307 47.2998 23.3009 47.0956 23.4541C46.8573 23.6243 46.619 23.6924 46.3637 23.6924C46.1084 23.6924 45.8531 23.5903 45.6148 23.4031L44.5596 25.3774L44.5255 25.3945L43.9298 24.5434L44.951 22.6882L44.5085 22.0585L42.9596 23.1648ZM46.0574 21.0032L45.1042 21.667L45.5808 22.3308C45.7169 22.535 45.8701 22.6712 46.0233 22.7393C46.1765 22.8074 46.3467 22.7733 46.5169 22.6542C46.7041 22.518 46.7892 22.3818 46.7722 22.2116C46.7552 22.0414 46.6871 21.8712 46.5339 21.667L46.0574 21.0032Z" fill="#282828"/>
<path d="M45.9552 28.8156L44.7638 25.9391L48.9168 24.2201L50.1082 27.0625L49.4104 27.3518L48.5934 25.3945L47.6743 25.7689L48.304 27.2837L47.6573 27.5561L47.0275 26.0412L45.8531 26.5348L46.6871 28.5262L45.9552 28.8156Z" fill="#282828"/>
<path d="M46.2105 30.1261C46.1765 29.9559 46.1935 29.8198 46.2616 29.7176C46.3296 29.5985 46.4488 29.5304 46.602 29.4964C46.7552 29.4623 46.8913 29.4794 46.9934 29.5474C47.1126 29.6155 47.1807 29.7347 47.2147 29.8878C47.2487 30.0581 47.2317 30.1942 47.1636 30.2963C47.0956 30.3985 46.9764 30.4836 46.8232 30.5176C46.6701 30.5516 46.5339 30.5346 46.4318 30.4836C46.3296 30.4155 46.2445 30.2963 46.2105 30.1261ZM47.8445 30.1261L47.6743 29.3772L50.3294 28.6113L50.4997 28.5773L50.7379 29.5645L50.5677 29.5985L47.8445 30.1261Z" fill="#282828"/>
<path d="M6.33165 42.0405C6.17846 41.5809 6.1274 41.1724 6.21251 40.815C6.28059 40.4576 6.46781 40.1342 6.74014 39.8789C7.01247 39.6235 7.38692 39.4023 7.82945 39.2491C8.27198 39.0959 8.69749 39.0278 9.07194 39.0619C9.44639 39.0959 9.7868 39.2321 10.0761 39.4704C10.3655 39.7086 10.5868 40.0491 10.7399 40.5086C10.8931 40.9682 10.9442 41.3767 10.8591 41.7341C10.791 42.0915 10.6038 42.4149 10.3315 42.6702C10.0591 42.9255 9.68467 43.1468 9.24214 43.3C8.79961 43.4531 8.3741 43.5212 7.99965 43.4872C7.6252 43.4531 7.28479 43.317 6.99545 43.0787C6.7061 42.8404 6.48483 42.5 6.33165 42.0405ZM7.01247 41.8022C7.14863 42.1766 7.36989 42.3979 7.69328 42.483C8.01667 42.5681 8.42516 42.517 8.90173 42.3468C9.39533 42.1766 9.73574 41.9553 9.93998 41.7C10.1442 41.4277 10.1783 41.1213 10.0421 40.7469C9.90594 40.3724 9.68467 40.1512 9.36129 40.0661C9.0379 39.981 8.62941 40.032 8.15284 40.2022C7.67626 40.3724 7.33585 40.5937 7.13161 40.849C6.92736 41.1213 6.89332 41.4447 7.01247 41.8022Z" fill="black"/>
<path d="M8.91873 47.1296L7.86346 45.4956L11.659 43.0617L12.6122 44.5595C12.9185 45.036 13.0547 45.4275 13.0207 45.7509C12.9866 46.0743 12.8164 46.3296 12.5271 46.5168C12.3398 46.636 12.1526 46.687 11.9824 46.67C11.8122 46.653 11.625 46.5679 11.4548 46.4147L11.3356 46.4828C11.4378 46.7721 11.4718 47.0104 11.4037 47.2317C11.3527 47.4529 11.1824 47.6402 10.9271 47.8104C10.5867 48.0316 10.2633 48.0827 9.90592 47.9976C9.58253 47.9295 9.25914 47.6232 8.91873 47.1296ZM10.0591 45.1892L8.95277 45.9041L9.42934 46.653C9.58253 46.9083 9.75273 47.0445 9.92294 47.0955C10.0931 47.1466 10.2633 47.1125 10.4335 46.9934C10.6208 46.8743 10.7229 46.7211 10.7399 46.5338C10.7569 46.3466 10.6889 46.1594 10.5357 45.9381L10.0591 45.1892ZM11.5739 44.2191L10.6378 44.8318L11.0633 45.4786C11.1824 45.6658 11.3186 45.7849 11.4548 45.853C11.608 45.9211 11.7611 45.8871 11.9143 45.7849C12.2207 45.5807 12.2547 45.2743 11.9994 44.8829L11.5739 44.2191Z" fill="black"/>
<path d="M11.3867 50.2273L10.7399 49.5124L14.0759 46.4998L14.7227 47.2146L11.3867 50.2273Z" fill="black"/>
<path d="M14.5695 53.0697L13.8376 52.5931L16.2886 48.8316L17.7013 49.7507L16.8503 53.6484L16.9694 53.7165L18.9948 50.5847L19.7267 51.0613L17.2758 54.8228L15.8631 53.9037L16.7311 50.006L16.612 49.9379L14.5695 53.0697Z" fill="black"/>
<path d="M21.2416 56.3716L19.6246 55.9291L20.1863 51.4527L20.2033 51.4187L21.1224 51.674L20.6459 55.4185L20.782 55.4525L22.399 52.0314L23.9478 52.4569L23.5734 56.2355L23.7095 56.2695L25.2244 52.8144L26.0924 53.0527L26.0754 53.0867L24.2542 57.2056L22.6373 56.7631L23.0117 52.9846L22.8755 52.9505L21.2416 56.3716Z" fill="black"/>
<path d="M27.2668 57.4269L26.3477 57.4439V57.4099L27.6242 52.9165L29.156 52.8824L30.6028 57.3078V57.3418L29.5986 57.3588L28.4241 53.6313H28.288L27.2668 57.4269ZM29.3773 56.2525L27.454 56.2865L27.6412 55.5547L29.156 55.5206L29.3773 56.2525Z" fill="black"/>
<path d="M33.0197 56.8823L32.1687 57.1205L30.9602 52.7974L32.5771 52.3548L34.926 55.5717L35.0621 55.5376L34.0579 51.9463L34.9089 51.708L36.1174 56.0312L34.4834 56.4908L32.1346 53.2739L31.9985 53.308L33.0197 56.8823Z" fill="black"/>
<path d="M38.7556 54.7717L37.9897 55.2313L35.6919 51.3677L37.1386 50.4996L40.2534 52.9846L40.3725 52.9165L38.4662 49.7167L39.2151 49.2741L41.5129 53.1378L40.0661 54.0058L36.9514 51.5208L36.8323 51.5889L38.7556 54.7717Z" fill="black"/>
<path d="M45.2233 49.7337L42.9936 51.9123L39.8619 48.6954L42.0745 46.5338L42.6022 47.0785L41.0873 48.5593L41.7852 49.2741L42.9596 48.1338L43.4532 48.6444L42.2788 49.7847L43.1809 50.7039L44.7297 49.189L45.2233 49.7337Z" fill="black"/>
<path d="M47.8445 46.1424L47.4701 46.9083L43.4192 44.9509L44.1681 43.4021L47.8956 44.2701L47.9807 44.0829L44.9851 41.7L45.734 40.1512L49.7848 42.1085L49.3934 42.9255L46.0574 41.3086L45.9893 41.4447L48.9508 43.7936L48.253 45.2403L44.5596 44.3723L44.4915 44.5084L47.8445 46.1424Z" fill="black"/>
<path d="M48.9168 38.9938L48.7466 39.7427L46.0233 39.2321L45.8531 39.198L46.0914 38.2108L46.2616 38.2449L48.9168 38.9938ZM50.3635 39.7427C50.3295 39.9129 50.2444 40.015 50.1422 40.0831C50.0231 40.1512 49.904 40.1682 49.7508 40.1342C49.5976 40.1001 49.4784 40.032 49.4104 39.9129C49.3423 39.8108 49.3253 39.6746 49.3593 39.5044C49.3933 39.3342 49.4784 39.2321 49.5806 39.164C49.6997 39.0959 49.8189 39.0789 49.972 39.1129C50.1252 39.147 50.2273 39.2151 50.3124 39.3342C50.3975 39.4363 50.4146 39.5725 50.3635 39.7427Z" fill="black"/>
<path d="M28.1688 50.2273C36.8546 50.2273 43.8957 43.1861 43.8957 34.5004C43.8957 25.8147 36.8546 18.7735 28.1688 18.7735C19.4831 18.7735 12.442 25.8147 12.442 34.5004C12.442 43.1861 19.4831 50.2273 28.1688 50.2273Z" stroke="#282828" strokeWidth="1.02347" stroke-miterlimit="10"/>
<path d="M19.931 38.5002L17.1736 36.9003V33.7345L19.931 35.3344V38.5002Z" fill="#282828"/>
<path d="M26.7902 31.3176L19.931 35.3344L17.1736 33.7345L24.0499 29.7347L26.7902 31.3176Z" fill="#282828"/>
<path d="M24.0669 36.0833L22.5861 44.8148L19.8969 43.266L21.2585 37.7003L24.0669 36.0833Z" fill="#282828"/>
<path d="M33.6495 24.186L30.9262 25.7689L33.6495 27.3689L36.3898 25.7689L33.6495 24.186Z" fill="#282828"/>
<path d="M29.5305 34.5175V37.7003L26.7902 36.0663V32.9005L29.5305 34.5175Z" fill="#282828"/>
<path d="M33.6495 38.4662L30.9262 36.9003L33.6495 35.3344V38.4662Z" fill="#282828"/>
<path d="M33.6324 27.3518L29.5305 34.5174L26.7902 32.9005L30.9262 25.7689L33.6324 27.3518Z" fill="#282828"/>
<path d="M33.6495 30.5176L32.2878 32.9175L32.2708 34.4834L33.6324 33.7005L33.6495 30.5176Z" fill="#282828"/>
<path d="M36.3727 32.1176L37.7684 31.3346L36.3727 30.5347V32.1176Z" fill="#282828"/>
<path d="M55.81 33.7345H43.8787" stroke="#282828" strokeWidth="1.02347" stroke-miterlimit="10"/>
<path d="M12.4419 34.5004H0.51062" stroke="#282828" strokeWidth="1.02347" stroke-miterlimit="10"/>
</g>
<defs>
<clipPath id="clip0_1_4">
<rect width="56.3206" height="65.3925" fill="white"/>
</clipPath>
</defs>
</svg>
